<svg width="39" height="38" viewBox="0 0 39 38" fill="none" xmlns="http://www.w3.org/2000/svg">
<path opacity="0.5" d="M22.2676 32.2473L21.4094 33.6977C20.6447 34.9897 18.7336 34.9897 17.9672 33.6977L17.1091 32.2473C16.4441 31.1232 16.1116 30.5595 15.5764 30.2492C15.0412 29.9373 14.3683 29.9262 13.0225 29.9024C11.0338 29.8692 9.78773 29.7473 8.74273 29.3134C7.78223 28.9156 6.90949 28.3324 6.17436 27.5973C5.43922 26.8622 4.85608 25.9894 4.45823 25.0289C3.85498 23.5754 3.85498 21.7308 3.85498 18.0417V16.4583C3.85498 11.2761 3.85498 8.68417 5.0219 6.781C5.6743 5.71573 6.56952 4.81996 7.6344 4.16692C9.53915 3 12.1326 3 17.3133 3H22.0633C27.2456 3 29.8375 3 31.7422 4.16692C32.8069 4.81951 33.7021 5.71472 34.3547 6.77942C35.5217 8.68417 35.5217 11.2777 35.5217 16.4583V18.0417C35.5217 21.7308 35.5217 23.5754 34.92 25.0289C34.522 25.9896 33.9386 26.8624 33.2032 27.5975C32.4677 28.3327 31.5947 28.9157 30.6339 29.3134C29.5889 29.7473 28.3428 29.8676 26.3542 29.9024C25.0083 29.9262 24.3354 29.9373 23.8002 30.2492C23.2651 30.5595 22.9326 31.1216 22.2676 32.2473Z" fill="#F9B233"/>
<path d="M11.855 12.1875C11.855 11.8726 11.9801 11.5705 12.2028 11.3478C12.4255 11.1251 12.7275 11 13.0425 11H25.7091C26.0241 11 26.3261 11.1251 26.5488 11.3478C26.7715 11.5705 26.8966 11.8726 26.8966 12.1875C26.8966 12.5024 26.7715 12.8045 26.5488 13.0272C26.3261 13.2499 26.0241 13.375 25.7091 13.375H13.0425C12.7275 13.375 12.4255 13.2499 12.2028 13.0272C11.9801 12.8045 11.855 12.5024 11.855 12.1875ZM11.855 17.7292C11.855 17.4142 11.9801 17.1122 12.2028 16.8895C12.4255 16.6668 12.7275 16.5417 13.0425 16.5417H21.7508C22.0658 16.5417 22.3678 16.6668 22.5905 16.8895C22.8132 17.1122 22.9383 17.4142 22.9383 17.7292C22.9383 18.0441 22.8132 18.3462 22.5905 18.5689C22.3678 18.7916 22.0658 18.9167 21.7508 18.9167H13.0425C12.7275 18.9167 12.4255 18.7916 12.2028 18.5689C11.9801 18.3462 11.855 18.0441 11.855 17.7292Z" fill="#F9B233"/>
</svg>
