<svg width="39" height="36" viewBox="0 0 39 36" fill="none" xmlns="http://www.w3.org/2000/svg">
<g opacity="0.4">
<path d="M23.8954 6.32237C22.9597 6.16305 22.1004 6.71344 21.9222 7.55532C21.7441 8.3972 22.3431 9.21917 23.2534 9.38392C25.9939 9.87638 28.11 11.8317 28.6463 14.3664C28.799 15.096 29.4959 15.6283 30.2985 15.6283C30.4062 15.6283 30.5138 15.6193 30.6234 15.6012C31.5337 15.4328 32.1327 14.6126 31.9546 13.769C31.1539 9.9832 27.9925 7.05924 23.8954 6.32237Z" fill="#F9B233"/>
<path d="M23.7693 0.0143667C23.3309 -0.0435693 22.8904 0.0759236 22.54 0.333014C22.1798 0.593726 21.9547 0.97031 21.9058 1.39216C21.802 2.2449 22.4695 3.01617 23.3935 3.11213C29.7652 3.76753 34.7178 8.34266 35.4342 14.234C35.5302 15.0234 36.2486 15.6191 37.106 15.6191C37.1706 15.6191 37.2332 15.6154 37.2978 15.6082C37.7461 15.5629 38.1454 15.3583 38.4273 15.0325C38.7072 14.7066 38.8345 14.301 38.7836 13.8864C37.8909 6.53578 31.7189 0.830902 23.7693 0.0143667Z" fill="#F9B233"/>
</g>
<path fill-rule="evenodd" clip-rule="evenodd" d="M18.5495 19.5542C26.3904 26.7794 28.1691 18.4207 33.1615 23.019C37.9744 27.4541 40.7407 28.3426 34.6427 33.9618C33.8789 34.5276 29.0258 41.3347 11.9704 25.6186C-5.08705 9.90054 2.29383 5.42272 2.90785 4.71887C9.02061 -0.915832 9.96801 1.64876 14.781 6.0838C19.7733 10.6841 10.7086 12.329 18.5495 19.5542Z" fill="#F9B233"/>
</svg>
