<svg width="43" height="42" viewBox="0 0 43 42" fill="none" xmlns="http://www.w3.org/2000/svg">
<g clip-path="url(#clip0_199_532)">
<path opacity="0.5" d="M21.7946 41.8332C33.3009 41.8332 42.628 32.5061 42.628 20.9998C42.628 9.49358 33.3009 0.166504 21.7946 0.166504C10.2884 0.166504 0.961304 9.49358 0.961304 20.9998C0.961304 32.5061 10.2884 41.8332 21.7946 41.8332Z" fill="#F9B233"/>
<path fill-rule="evenodd" clip-rule="evenodd" d="M21.7947 11.104C22.2091 11.104 22.6065 11.2686 22.8995 11.5616C23.1926 11.8547 23.3572 12.2521 23.3572 12.6665V20.354L28.1072 25.104C28.2607 25.2471 28.3838 25.4196 28.4692 25.6112C28.5546 25.8029 28.6005 26.0098 28.6042 26.2196C28.6079 26.4294 28.5694 26.6378 28.4908 26.8323C28.4122 27.0269 28.2952 27.2036 28.1468 27.352C27.9985 27.5004 27.8217 27.6173 27.6272 27.6959C27.4326 27.7745 27.2242 27.8131 27.0144 27.8094C26.8046 27.8057 26.5977 27.7598 26.4061 27.6744C26.2144 27.589 26.0419 27.4659 25.8988 27.3123L20.6905 22.104C20.3974 21.8113 20.2325 21.4141 20.2322 20.9998V12.6665C20.2322 12.2521 20.3968 11.8547 20.6898 11.5616C20.9828 11.2686 21.3803 11.104 21.7947 11.104Z" fill="#F9B233"/>
</g>
<defs>
<clipPath id="clip0_199_532">
<rect width="42" height="42" fill="white" transform="translate(0.794678)"/>
</clipPath>
</defs>
</svg>
