<svg width="64" height="64" viewBox="0 0 64 64" fill="none" xmlns="http://www.w3.org/2000/svg">
<path d="M44.6666 9.4935V5.3335C44.6666 4.24016 43.76 3.3335 42.6666 3.3335C41.5733 3.3335 40.6666 4.24016 40.6666 5.3335V9.3335H23.3333V5.3335C23.3333 4.24016 22.4266 3.3335 21.3333 3.3335C20.24 3.3335 19.3333 4.24016 19.3333 5.3335V9.4935C12.1333 10.1602 8.63996 14.4535 8.10663 20.8268C8.05329 21.6002 8.69329 22.2402 9.43996 22.2402H54.56C55.3333 22.2402 55.9733 21.5735 55.8933 20.8268C55.36 14.4535 51.8666 10.1602 44.6666 9.4935Z" fill="#1D7A55"/>
<path opacity="0.4" d="M53.3333 26.2402C54.8 26.2402 56 27.4402 56 28.9069V45.3336C56 53.3336 52 58.6669 42.6667 58.6669H21.3333C12 58.6669 8 53.3336 8 45.3336V28.9069C8 27.4402 9.2 26.2402 10.6667 26.2402H53.3333Z" fill="#1D7A55"/>
<path d="M22.6667 39.9972C21.9733 39.9972 21.28 39.7038 20.7733 39.2238C20.2933 38.7172 20 38.0238 20 37.3305C20 36.6372 20.2933 35.9438 20.7733 35.4372C21.52 34.6905 22.6933 34.4505 23.68 34.8772C24.0267 35.0105 24.32 35.1972 24.56 35.4372C25.04 35.9438 25.3333 36.6372 25.3333 37.3305C25.3333 38.0238 25.04 38.7172 24.56 39.2238C24.0533 39.7038 23.36 39.9972 22.6667 39.9972ZM32 39.9972C31.3067 39.9972 30.6133 39.7038 30.1067 39.2238C29.6267 38.7172 29.3333 38.0238 29.3333 37.3305C29.3333 36.6372 29.6267 35.9438 30.1067 35.4372C30.3467 35.1972 30.64 35.0105 30.9867 34.8772C31.9733 34.4505 33.1467 34.6905 33.8933 35.4372C34.3733 35.9438 34.6667 36.6372 34.6667 37.3305C34.6667 38.0238 34.3733 38.7172 33.8933 39.2238L33.4933 39.5438C33.3333 39.6505 33.1733 39.7305 33.0133 39.7838C32.8533 39.8638 32.6933 39.9172 32.5333 39.9438C32.3467 39.9705 32.1867 39.9972 32 39.9972ZM41.3333 39.9998C40.64 39.9998 39.9467 39.7065 39.44 39.2265C38.96 38.7198 38.6667 38.0265 38.6667 37.3332C38.6667 36.6398 38.96 35.9465 39.44 35.4398C39.7067 35.1998 39.9733 35.0132 40.32 34.8798C40.8 34.6665 41.3333 34.6132 41.8667 34.7198C42.0267 34.7465 42.1867 34.7998 42.3467 34.8798C42.5067 34.9332 42.6667 35.0132 42.8267 35.1198L43.2267 35.4398C43.7067 35.9465 44 36.6398 44 37.3332C44 38.0265 43.7067 38.7198 43.2267 39.2265L42.8267 39.5465C42.6667 39.6532 42.5067 39.7332 42.3467 39.7865C42.1867 39.8665 42.0267 39.9198 41.8667 39.9465C41.68 39.9732 41.4933 39.9998 41.3333 39.9998ZM22.6667 49.3332C22.32 49.3332 21.9733 49.2532 21.6533 49.1198C21.3067 48.9865 21.04 48.7998 20.7733 48.5598C20.2933 48.0532 20 47.3598 20 46.6665C20 45.9732 20.2933 45.2798 20.7733 44.7732C21.04 44.5332 21.3067 44.3465 21.6533 44.2132C22.1333 43.9998 22.6667 43.9465 23.2 44.0532C23.36 44.0798 23.52 44.1332 23.68 44.2132C23.84 44.2665 24 44.3465 24.16 44.4532L24.56 44.7732C25.04 45.2798 25.3333 45.9732 25.3333 46.6665C25.3333 47.3598 25.04 48.0532 24.56 48.5598C24.4267 48.6665 24.2933 48.7998 24.16 48.8798C24 48.9865 23.84 49.0665 23.68 49.1198C23.52 49.1998 23.36 49.2532 23.2 49.2798C23.0133 49.3065 22.8533 49.3332 22.6667 49.3332ZM32 49.3332C31.3067 49.3332 30.6133 49.0398 30.1067 48.5598C29.6267 48.0532 29.3333 47.3598 29.3333 46.6665C29.3333 45.9732 29.6267 45.2798 30.1067 44.7732C31.0933 43.7865 32.9067 43.7865 33.8933 44.7732C34.3733 45.2798 34.6667 45.9732 34.6667 46.6665C34.6667 47.3598 34.3733 48.0532 33.8933 48.5598C33.3867 49.0398 32.6933 49.3332 32 49.3332ZM41.3333 49.3332C40.64 49.3332 39.9467 49.0398 39.44 48.5598C38.96 48.0532 38.6667 47.3598 38.6667 46.6665C38.6667 45.9732 38.96 45.2798 39.44 44.7732C40.4267 43.7865 42.24 43.7865 43.2267 44.7732C43.7067 45.2798 44 45.9732 44 46.6665C44 47.3598 43.7067 48.0532 43.2267 48.5598C42.72 49.0398 42.0267 49.3332 41.3333 49.3332Z" fill="#1D7A55"/>
</svg>
