<svg width="42" height="38" viewBox="0 0 42 38" fill="none" xmlns="http://www.w3.org/2000/svg">
<path opacity="0.4" d="M41.9748 27.2348C41.9748 33.0659 37.2896 37.7893 31.4541 37.8102H31.4332H10.7056C4.89096 37.8102 0.143066 33.1077 0.143066 27.2766V27.2557C0.143066 27.2557 0.155616 18.0054 0.172349 13.353C0.17444 12.4794 1.1784 11.9903 1.86235 12.5337C6.83195 16.4734 15.7191 23.6567 15.83 23.7508C17.315 24.94 19.1974 25.6109 21.1217 25.6109C23.0459 25.6109 24.9283 24.94 26.4134 23.7278C26.5242 23.6546 35.2127 16.6866 40.2576 12.6821C40.9436 12.1366 41.9518 12.6257 41.9538 13.4972C41.9748 18.114 41.9748 27.2348 41.9748 27.2348Z" fill="#F9B233"/>
<path d="M40.8791 5.77763C39.0678 2.36675 35.5037 0.188965 31.5799 0.188965H10.7059C6.78208 0.188965 3.21802 2.36675 1.40671 5.77763C1.00094 6.54048 1.19337 7.49143 1.86895 8.03065L17.399 20.4432C18.4866 21.321 19.8043 21.7578 21.122 21.7578C21.1304 21.7578 21.1366 21.7578 21.1429 21.7578C21.1492 21.7578 21.1575 21.7578 21.1638 21.7578C22.4815 21.7578 23.7992 21.321 24.8868 20.4432L40.4169 8.03065C41.0924 7.49143 41.2849 6.54048 40.8791 5.77763Z" fill="#F9B233"/>
</svg>
