<svg width="46" height="46" viewBox="0 0 46 46" fill="none" xmlns="http://www.w3.org/2000/svg">
<circle cx="23" cy="23" r="23" fill="white"/>
<path d="M28.6663 30.5H16.4375V33C16.4375 33.2486 16.3388 33.4871 16.163 33.6629C15.9871 33.8387 15.7487 33.9375 15.5 33.9375C15.2514 33.9375 15.0129 33.8387 14.8371 33.6629C14.6613 33.4871 14.5625 33.2486 14.5625 33V30.095C13.5263 29.6425 12.7 28.8387 12.3025 27.8238C12.2851 27.7817 12.2689 27.7392 12.2538 27.6962L10.625 23.33C10.1063 21.9375 11.2663 20.5 12.9088 20.5C13.9213 20.5 14.8263 21.0662 15.1713 21.9175L16.5438 25.3C16.6688 25.6075 16.7313 25.7625 16.8213 25.8875C17.046 26.1897 17.3762 26.3963 17.7463 26.4662C17.9088 26.5 18.0925 26.5 18.4588 26.5H27.1838C27.895 26.5 28.25 26.5 28.5475 26.3775C28.71 26.31 28.8575 26.2175 28.9838 26.1037C29.2138 25.8962 29.335 25.5975 29.5775 25L30.8288 21.9175C31.1738 21.0675 32.0788 20.5 33.0913 20.5C34.7338 20.5 35.8938 21.9375 35.375 23.33L33.975 27.08C33.7313 27.735 33.61 28.0612 33.4488 28.34C32.9822 29.1241 32.2776 29.7389 31.4375 30.095V33C31.4375 33.2486 31.3388 33.4871 31.163 33.6629C30.9871 33.8387 30.7487 33.9375 30.5 33.9375C30.2514 33.9375 30.0129 33.8387 29.8371 33.6629C29.6613 33.4871 29.5625 33.2486 29.5625 33V30.4938C29.3288 30.5 29.0438 30.5 28.6663 30.5Z" fill="black"/>
<path opacity="0.5" d="M24.545 12.375H21.455C20.08 12.375 18.985 12.375 18.13 12.485C17.2475 12.5975 16.5237 12.835 15.9475 13.385C15.3675 13.9362 15.1112 14.6387 14.9912 15.4912C14.875 16.3137 14.875 17.36 14.875 18.6662V21.41C14.9963 21.5637 15.0975 21.735 15.1712 21.9175L16.5438 25.3C16.6688 25.6075 16.7313 25.7625 16.8213 25.8875C17.046 26.1897 17.3762 26.3963 17.7462 26.4662C17.9087 26.5 18.0925 26.5 18.4587 26.5H27.1838C27.895 26.5 28.25 26.5 28.5475 26.3775C28.71 26.31 28.8575 26.2175 28.9838 26.1037C29.2138 25.8962 29.335 25.5975 29.5775 25L30.8288 21.9175C30.9038 21.7337 31.0037 21.5637 31.125 21.41V18.6662C31.125 17.36 31.125 16.3137 31.0087 15.4912C30.8888 14.6387 30.6325 13.9363 30.0525 13.3838C29.4775 12.8363 28.7525 12.5975 27.8713 12.4837C27.015 12.375 25.9213 12.375 24.545 12.375Z" fill="black"/>
</svg>
