<svg width="30" height="30" viewBox="0 0 30 30" fill="none" xmlns="http://www.w3.org/2000/svg">
<path d="M20.6663 22.5H8.43755V25C8.43755 25.2486 8.33877 25.4871 8.16296 25.6629C7.98714 25.8387 7.74869 25.9375 7.50005 25.9375C7.25141 25.9375 7.01295 25.8387 6.83713 25.6629C6.66132 25.4871 6.56255 25.2486 6.56255 25V22.095C5.5263 21.6425 4.70005 20.8387 4.30255 19.8238C4.28511 19.7817 4.26885 19.7392 4.2538 19.6962L2.62505 15.33C2.1063 13.9375 3.2663 12.5 4.9088 12.5C5.9213 12.5 6.8263 13.0662 7.1713 13.9175L8.5438 17.3C8.6688 17.6075 8.7313 17.7625 8.8213 17.8875C9.04604 18.1897 9.37624 18.3963 9.7463 18.4662C9.9088 18.5 10.0925 18.5 10.4588 18.5H19.1838C19.895 18.5 20.25 18.5 20.5475 18.3775C20.71 18.31 20.8575 18.2175 20.9838 18.1037C21.2138 17.8962 21.335 17.5975 21.5775 17L22.8288 13.9175C23.1738 13.0675 24.0788 12.5 25.0913 12.5C26.7338 12.5 27.8938 13.9375 27.375 15.33L25.975 19.08C25.7313 19.735 25.61 20.0612 25.4488 20.34C24.9822 21.1241 24.2776 21.7389 23.4375 22.095V25C23.4375 25.2486 23.3388 25.4871 23.163 25.6629C22.9871 25.8387 22.7487 25.9375 22.5 25.9375C22.2514 25.9375 22.0129 25.8387 21.8371 25.6629C21.6613 25.4871 21.5625 25.2486 21.5625 25V22.4938C21.3288 22.5 21.0438 22.5 20.6663 22.5Z" fill="#FFE1AC"/>
<path opacity="0.5" d="M16.545 4.375H13.455C12.08 4.375 10.985 4.375 10.13 4.485C9.2475 4.5975 8.52375 4.835 7.9475 5.385C7.3675 5.93625 7.11125 6.63875 6.99125 7.49125C6.875 8.31375 6.875 9.36 6.875 10.6662V13.41C6.99625 13.5637 7.0975 13.735 7.17125 13.9175L8.54375 17.3C8.66875 17.6075 8.73125 17.7625 8.82125 17.8875C9.046 18.1897 9.3762 18.3963 9.74625 18.4662C9.90875 18.5 10.0925 18.5 10.4587 18.5H19.1838C19.895 18.5 20.25 18.5 20.5475 18.3775C20.71 18.31 20.8575 18.2175 20.9838 18.1037C21.2138 17.8962 21.335 17.5975 21.5775 17L22.8288 13.9175C22.9038 13.7337 23.0037 13.5637 23.125 13.41V10.6662C23.125 9.36 23.125 8.31375 23.0087 7.49125C22.8888 6.63875 22.6325 5.93625 22.0525 5.38375C21.4775 4.83625 20.7525 4.5975 19.8713 4.48375C19.015 4.375 17.9213 4.375 16.545 4.375Z" fill="#FFE1AC"/>
</svg>
