<svg width="45" height="38" viewBox="0 0 45 38" fill="none" xmlns="http://www.w3.org/2000/svg">
<path opacity="0.4" d="M43.6894 27.2348C43.6894 33.0659 39.0042 37.7893 33.1687 37.8102H33.1478H12.4202C6.60556 37.8102 1.85767 33.1077 1.85767 27.2766V27.2557C1.85767 27.2557 1.87022 18.0054 1.88695 13.353C1.88904 12.4794 2.893 11.9903 3.57695 12.5337C8.54655 16.4734 17.4337 23.6567 17.5446 23.7508C19.0296 24.94 20.912 25.6109 22.8363 25.6109C24.7605 25.6109 26.6429 24.94 28.128 23.7278C28.2388 23.6546 36.9273 16.6866 41.9722 12.6821C42.6582 12.1366 43.6664 12.6257 43.6684 13.4972C43.6894 18.114 43.6894 27.2348 43.6894 27.2348Z" fill="#F9B233"/>
<path d="M42.5936 5.77763C40.7823 2.36675 37.2182 0.188965 33.2944 0.188965H12.4204C8.49656 0.188965 4.9325 2.36675 3.12119 5.77763C2.71542 6.54048 2.90785 7.49143 3.58343 8.03065L19.1134 20.4432C20.2011 21.321 21.5188 21.7578 22.8365 21.7578C22.8448 21.7578 22.8511 21.7578 22.8574 21.7578C22.8637 21.7578 22.872 21.7578 22.8783 21.7578C24.196 21.7578 25.5137 21.321 26.6013 20.4432L42.1313 8.03065C42.8069 7.49143 42.9994 6.54048 42.5936 5.77763Z" fill="#F9B233"/>
</svg>
