<svg width="32" height="42" viewBox="0 0 32 42" fill="none" xmlns="http://www.w3.org/2000/svg">
<path d="M8.29529 1.94749C13.062 -0.691714 18.921 -0.645585 23.6429 2.06832C28.3185 4.8375 31.1601 9.77967 31.1339 15.0961C31.0248 20.3776 27.9778 25.3422 24.1689 29.1801C21.9706 31.4052 19.5113 33.3728 16.8414 35.0426C16.5665 35.1941 16.2653 35.2955 15.9527 35.3419C15.6519 35.3297 15.3589 35.245 15.1003 35.0954C11.0242 32.5864 7.44817 29.3837 4.54433 25.6415C2.11449 22.5177 0.734023 18.7437 0.590393 14.832L0.601271 14.2629C0.799665 9.15696 3.69885 4.49243 8.29529 1.94749ZM17.8416 10.467C15.9038 9.68208 13.6697 10.1085 12.1824 11.5471C10.6951 12.9857 10.2479 15.1528 11.0498 17.0364C11.8516 18.92 13.7442 20.1487 15.8439 20.1487C17.2194 20.1581 18.5417 19.6331 19.5161 18.6906C20.4905 17.7481 21.036 16.4665 21.0312 15.1313C21.0385 13.0932 19.7793 11.2518 17.8416 10.467Z" fill="#F9B233"/>
<path opacity="0.4" d="M15.8627 41.5793C21.8873 41.5793 26.7712 40.6485 26.7712 39.5003C26.7712 38.3522 21.8873 37.4214 15.8627 37.4214C9.83816 37.4214 4.95428 38.3522 4.95428 39.5003C4.95428 40.6485 9.83816 41.5793 15.8627 41.5793Z" fill="#F9B233"/>
</svg>
