<svg width="32" height="30" viewBox="0 0 32 30" fill="none" xmlns="http://www.w3.org/2000/svg">
<ellipse cx="15.6648" cy="15" rx="14.8641" ry="15" fill="white"/>
<path d="M16.855 14.5C16.855 15.163 16.5916 15.7989 16.1227 16.2678C15.6539 16.7366 15.018 17 14.355 17C13.6919 17 13.0561 16.7366 12.5872 16.2678C12.1184 15.7989 11.855 15.163 11.855 14.5C11.855 13.837 12.1184 13.2011 12.5872 12.7322C13.0561 12.2634 13.6919 12 14.355 12C15.018 12 15.6539 12.2634 16.1227 12.7322C16.5916 13.2011 16.855 13.837 16.855 14.5Z" stroke="#F9B233" stroke-width="1.5"/>
<path opacity="0.5" d="M22.175 19.8018L16.855 16.2898M22.275 9.83984L16.955 13.3498" stroke="#F9B233" stroke-width="1.5" stroke-linecap="round"/>
<path d="M26.855 21.5C26.855 22.163 26.5916 22.7989 26.1227 23.2678C25.6539 23.7366 25.018 24 24.355 24C23.6919 24 23.0561 23.7366 22.5872 23.2678C22.1184 22.7989 21.855 22.163 21.855 21.5C21.855 20.837 22.1184 20.2011 22.5872 19.7322C23.0561 19.2634 23.6919 19 24.355 19C25.018 19 25.6539 19.2634 26.1227 19.7322C26.5916 20.2011 26.855 20.837 26.855 21.5ZM26.855 8.5C26.855 9.16304 26.5916 9.79893 26.1227 10.2678C25.6539 10.7366 25.018 11 24.355 11C23.6919 11 23.0561 10.7366 22.5872 10.2678C22.1184 9.79893 21.855 9.16304 21.855 8.5C21.855 7.83696 22.1184 7.20107 22.5872 6.73223C23.0561 6.26339 23.6919 6 24.355 6C25.018 6 25.6539 6.26339 26.1227 6.73223C26.5916 7.20107 26.855 7.83696 26.855 8.5Z" stroke="#F9B233" stroke-width="1.5"/>
</svg>
