<svg width="64" height="64" viewBox="0 0 64 64" fill="none" xmlns="http://www.w3.org/2000/svg">
<path opacity="0.4" d="M40.0267 39.3334V58.6401L8.02667 58.6934V39.3334L8 35.3334V18.8534C8 17.0667 8.90667 15.4134 10.3733 14.4267L21.04 7.30674C22.8267 6.10674 25.1733 6.10674 26.96 7.30674L37.6267 14.4267C39.12 15.4134 40 17.0667 40 18.8534V35.3334L40.0267 39.3334Z" fill="#1D7A55"/>
<path d="M58.6668 56.6693H55.2802V48.6693C57.8135 47.8426 59.6535 45.4693 59.6535 42.6693V37.3359C59.6535 33.8426 56.8002 30.9893 53.3068 30.9893C49.8135 30.9893 46.9602 33.8426 46.9602 37.3359V42.6693C46.9602 45.4426 48.7735 47.7893 51.2535 48.6426V56.6693H5.3335C4.24016 56.6693 3.3335 57.5759 3.3335 58.6693C3.3335 59.7626 4.24016 60.6693 5.3335 60.6693H53.1468C53.2002 60.6693 53.2268 60.6959 53.2802 60.6959C53.3335 60.6959 53.3602 60.6693 53.4135 60.6693H58.6668C59.7602 60.6693 60.6668 59.7626 60.6668 58.6693C60.6668 57.5759 59.7602 56.6693 58.6668 56.6693Z" fill="#1D7A55"/>
<path d="M40.0267 39.3335H8.02667L8 35.3335H40L40.0267 39.3335ZM24 60.6668C22.9067 60.6668 22 59.7602 22 58.6668V48.6668C22 47.5735 22.9067 46.6668 24 46.6668C25.0933 46.6668 26 47.5735 26 48.6668V58.6668C26 59.7602 25.0933 60.6668 24 60.6668ZM24 28.6668C25.2377 28.6668 26.4247 28.1752 27.2998 27.3C28.175 26.4248 28.6667 25.2378 28.6667 24.0002C28.6667 22.7625 28.175 21.5755 27.2998 20.7003C26.4247 19.8252 25.2377 19.3335 24 19.3335C22.7623 19.3335 21.5753 19.8252 20.7002 20.7003C19.825 21.5755 19.3333 22.7625 19.3333 24.0002C19.3333 25.2378 19.825 26.4248 20.7002 27.3C21.5753 28.1752 22.7623 28.6668 24 28.6668Z" fill="#1D7A55"/>
</svg>
