<svg width="38" height="38" viewBox="0 0 38 38" fill="none" xmlns="http://www.w3.org/2000/svg">
<g opacity="0.4">
<path d="M23.0988 6.69067C22.1631 6.52207 21.3037 7.1045 21.1256 7.9954C20.9475 8.88629 21.5465 9.75611 22.4567 9.93046C25.1973 10.4516 27.3133 12.5208 27.8497 15.203C28.0024 15.9751 28.6993 16.5384 29.5019 16.5384C29.6095 16.5384 29.7172 16.5288 29.8268 16.5097C30.7371 16.3315 31.3361 15.4636 31.1579 14.5708C30.3573 10.5646 27.1959 7.47044 23.0988 6.69067Z" fill="#F9B233"/>
<path d="M22.9726 0.0152031C22.5341 -0.0461058 22.0937 0.0803437 21.7433 0.352402C21.3831 0.628291 21.158 1.0268 21.109 1.4732C21.0053 2.37559 21.6728 3.19177 22.5967 3.29331C28.9685 3.98687 33.921 8.82835 34.6375 15.0627C34.7334 15.898 35.4518 16.5284 36.3092 16.5284C36.3738 16.5284 36.4364 16.5245 36.501 16.5169C36.9493 16.469 37.3487 16.2525 37.6305 15.9076C37.9105 15.5627 38.0377 15.1336 37.9868 14.6948C37.0942 6.91628 30.9221 0.879274 22.9726 0.0152031Z" fill="#F9B233"/>
</g>
<path fill-rule="evenodd" clip-rule="evenodd" d="M17.7526 20.6925C25.5935 28.3383 27.3723 19.4929 32.3646 24.359C37.1776 29.0522 39.9438 29.9925 33.8458 35.9388C33.082 36.5375 28.2289 43.741 11.1736 27.1099C-5.88393 10.4768 1.49696 5.73829 2.11098 4.99346C8.22373 -0.969282 9.17114 1.74461 13.9841 6.43785C18.9764 11.306 9.91176 13.0467 17.7526 20.6925Z" fill="#F9B233"/>
</svg>
