<svg width="22" height="36" viewBox="0 0 22 36" fill="none" xmlns="http://www.w3.org/2000/svg">
<path d="M17.0266 18L12.9999 16.5867V7.54667H13.9599C16.1199 7.54667 17.8799 9.44 17.8799 11.76C17.8799 12.8533 18.7866 13.76 19.8799 13.76C20.9733 13.76 21.8799 12.8533 21.8799 11.76C21.8799 7.22667 18.3333 3.54667 13.9599 3.54667H12.9999V2C12.9999 0.906667 12.0933 0 10.9999 0C9.9066 0 8.99993 0.906667 8.99993 2V3.54667H7.2666C3.31993 3.54667 0.0932617 6.88 0.0932617 10.96C0.0932617 15.7333 2.86659 17.2533 4.97326 18L8.99993 19.4133V28.4267H8.03993C5.87993 28.4267 4.11993 26.5333 4.11993 24.2133C4.11993 23.12 3.21326 22.2133 2.11993 22.2133C1.0266 22.2133 0.119929 23.12 0.119929 24.2133C0.119929 28.7467 3.6666 32.4267 8.03993 32.4267H8.99993V34C8.99993 35.0933 9.9066 36 10.9999 36C12.0933 36 12.9999 35.0933 12.9999 34V32.4533H14.7333C18.6799 32.4533 21.9066 29.12 21.9066 25.04C21.8799 20.24 19.1066 18.72 17.0266 18ZM6.30659 14.24C4.9466 13.76 4.11993 13.3067 4.11993 10.9867C4.11993 9.09333 5.53326 7.57333 7.29326 7.57333H9.0266V15.2L6.30659 14.24ZM14.7333 28.4533H12.9999V20.8267L15.6933 21.76C17.0533 22.24 17.8799 22.6933 17.8799 25.0133C17.8799 26.9067 16.4666 28.4533 14.7333 28.4533Z" fill="#1D7A55"/>
</svg>
