<svg width="36" height="36" viewBox="0 0 36 36" fill="none" xmlns="http://www.w3.org/2000/svg">
<path opacity="0.5" d="M33 18C33 26.2845 26.2845 33 18 33C9.7155 33 3 26.2845 3 18C3 9.7155 9.7155 3 18 3C26.2845 3 33 9.7155 33 18Z" fill="white"/>
<path d="M24.045 13.455C24.2557 13.6659 24.374 13.9519 24.374 14.25C24.374 14.5481 24.2557 14.834 24.045 15.045L16.545 22.545C16.334 22.7557 16.0481 22.874 15.75 22.874C15.4519 22.874 15.1659 22.7557 14.955 22.545L11.955 19.545C11.8445 19.442 11.7558 19.3178 11.6943 19.1798C11.6328 19.0418 11.5998 18.8928 11.5971 18.7418C11.5944 18.5907 11.6222 18.4407 11.6788 18.3006C11.7354 18.1605 11.8196 18.0333 11.9264 17.9264C12.0333 17.8196 12.1605 17.7354 12.3006 17.6788C12.4407 17.6222 12.5907 17.5944 12.7418 17.5971C12.8928 17.5998 13.0418 17.6328 13.1798 17.6943C13.3178 17.7558 13.442 17.8445 13.545 17.955L15.75 20.16L19.1025 16.806L22.455 13.455C22.6659 13.2443 22.9519 13.126 23.25 13.126C23.5481 13.126 23.834 13.2443 24.045 13.455Z" fill="white"/>
</svg>
