<svg width="64" height="64" viewBox="0 0 64 64" fill="none" xmlns="http://www.w3.org/2000/svg">
<path opacity="0.4" d="M51.9465 34.5332H57.3332V30.6932C57.3332 25.1732 52.8265 20.6665 47.3065 20.6665H16.6932C11.1732 20.6665 6.6665 25.1732 6.6665 30.6932V40.4265C8.77317 38.5065 11.5998 37.3332 14.6665 37.3332C16.2424 37.3332 17.8028 37.6436 19.2587 38.2466C20.7146 38.8497 22.0375 39.7336 23.1518 40.8479C24.2661 41.9622 25.15 43.2851 25.7531 44.741C26.3561 46.1969 26.6665 47.7573 26.6665 49.3332C26.6665 50.7465 26.4265 52.0798 25.9732 53.3332C25.2532 55.4398 23.9198 57.2532 22.2398 58.6665H47.3065C52.8265 58.6665 57.3332 54.1598 57.3332 48.6398V45.4665H52.2665C49.3865 45.4665 46.7465 43.3598 46.5065 40.4798C46.3465 38.7998 46.9865 37.2265 48.1065 36.1332C49.0932 35.1198 50.4532 34.5332 51.9465 34.5332Z" fill="white"/>
<path d="M14.6666 37.3331C11.5999 37.3331 8.77327 38.5065 6.6666 40.4265C5.40332 41.54 4.39282 42.9108 3.70292 44.447C3.01302 45.9832 2.65967 47.6492 2.6666 49.3331C2.6666 52.5157 3.93089 55.568 6.18132 57.8184C8.43176 60.0689 11.484 61.3331 14.6666 61.3331C17.5466 61.3331 20.1599 60.3198 22.2399 58.6665C23.9199 57.2531 25.2533 55.4398 25.9733 53.3331C26.4266 52.0798 26.6666 50.7465 26.6666 49.3331C26.6666 47.7573 26.3562 46.1968 25.7532 44.7409C25.1501 43.285 24.2662 41.9622 23.1519 40.8479C22.0376 39.7336 20.7147 38.8496 19.2588 38.2466C17.8029 37.6435 16.2425 37.3331 14.6666 37.3331ZM39.5999 10.5385V20.6718H16.6933C11.1733 20.6718 6.6666 25.1785 6.6666 30.6985V20.9118C6.6666 17.7385 8.61327 14.9118 11.5733 13.7918L32.7466 5.79181C36.0533 4.56514 39.5999 6.99181 39.5999 10.5385ZM60.1573 37.2531V42.7465C60.1573 44.2131 58.9839 45.4131 57.4906 45.4665H52.2639C49.3839 45.4665 46.7439 43.3598 46.5039 40.4798C46.3439 38.7998 46.9839 37.2265 48.1039 36.1331C49.0906 35.1198 50.4506 34.5331 51.9439 34.5331H57.4906C58.9839 34.5865 60.1573 35.7865 60.1573 37.2531ZM37.3333 33.9998H18.6666C17.5733 33.9998 16.6666 33.0931 16.6666 31.9998C16.6666 30.9065 17.5733 29.9998 18.6666 29.9998H37.3333C38.4266 29.9998 39.3333 30.9065 39.3333 31.9998C39.3333 33.0931 38.4266 33.9998 37.3333 33.9998Z" fill="white"/>
<path d="M17.7628 49L15.9169 48.3719V44.3541H16.357C17.3472 44.3541 18.154 45.1956 18.154 46.2267C18.154 46.7126 18.5697 47.1156 19.0709 47.1156C19.5721 47.1156 19.9878 46.7126 19.9878 46.2267C19.9878 44.2119 18.3619 42.5763 16.357 42.5763H15.9169V41.8889C15.9169 41.403 15.5012 41 15 41C14.4988 41 14.0831 41.403 14.0831 41.8889V42.5763H13.2885C11.4792 42.5763 10 44.0578 10 45.8711C10 47.9926 11.2714 48.6681 12.2372 49L14.0831 49.6281V53.6341H13.643C12.6528 53.6341 11.846 52.7926 11.846 51.7615C11.846 51.2756 11.4303 50.8726 10.9291 50.8726C10.4279 50.8726 10.0122 51.2756 10.0122 51.7615C10.0122 53.7763 11.6381 55.4119 13.643 55.4119H14.0831V56.1111C14.0831 56.597 14.4988 57 15 57C15.5012 57 15.9169 56.597 15.9169 56.1111V55.4237H16.7115C18.5208 55.4237 20 53.9422 20 52.1289C19.9878 49.9956 18.7164 49.32 17.7628 49ZM12.8484 47.3289C12.2249 47.1156 11.846 46.9141 11.846 45.883C11.846 45.0415 12.4939 44.3659 13.3007 44.3659H14.0954V47.7556L12.8484 47.3289ZM16.7115 53.6459H15.9169V50.2563L17.1516 50.6711C17.7751 50.8844 18.154 51.0859 18.154 52.117C18.154 52.9585 17.5061 53.6459 16.7115 53.6459Z" fill="#1D7A55"/>
</svg>
